<svg xmlns="http://www.w3.org/2000/svg" viewBox="0 0 1488.15 944.03"><defs><style>.cls-1{fill:#e4e2e2;}.cls-2{fill:#272e3e;}.cls-26,.cls-3,.cls-31{fill:#fff;}.cls-14,.cls-4{font-size:24.92px;fill:#1d1d1b;}.cls-14,.cls-31,.cls-4{font-family:Montserrat-SemiBold, Montserrat SemiBold;}.cls-5{letter-spacing:-0.01em;}.cls-6{letter-spacing:0em;}.cls-7{letter-spacing:-0.01em;}.cls-8{letter-spacing:-0.01em;}.cls-9{letter-spacing:-0.01em;}.cls-10{letter-spacing:0em;}.cls-11{letter-spacing:0.02em;}.cls-12,.cls-14{letter-spacing:0.01em;}.cls-13{letter-spacing:0em;}.cls-15{letter-spacing:-0.01em;}.cls-16{letter-spacing:-0.05em;}.cls-17{letter-spacing:0.01em;}.cls-18{letter-spacing:-0.02em;}.cls-19{letter-spacing:0em;}.cls-20{letter-spacing:-0.02em;}.cls-21{letter-spacing:0.01em;}.cls-22{letter-spacing:0.03em;}.cls-23{letter-spacing:0.03em;}.cls-24{letter-spacing:-0.02em;}.cls-25{letter-spacing:0em;}.cls-26{font-size:46.37px;font-family:Montserrat-ExtraBold, Montserrat ExtraBold;}.cls-27{letter-spacing:-0.01em;}.cls-28{letter-spacing:-0.01em;}.cls-29{letter-spacing:0.01em;}.cls-30{letter-spacing:-0.04em;}.cls-31{font-size:17.39px;}.cls-32{letter-spacing:-0.01em;}.cls-33{letter-spacing:0em;}.cls-34{letter-spacing:-0.01em;}.cls-35{letter-spacing:0em;}.cls-36{letter-spacing:-0.02em;}.cls-37{letter-spacing:0.01em;}.cls-38{letter-spacing:-0.01em;}.cls-39{letter-spacing:0em;}.cls-40{letter-spacing:-0.01em;}.cls-41{letter-spacing:0em;}.cls-42{letter-spacing:-0.02em;}.cls-43{letter-spacing:-0.02em;}.cls-44{letter-spacing:-0.03em;}.cls-45{letter-spacing:-0.07em;}.cls-46{letter-spacing:0em;}.cls-47{letter-spacing:-0.01em;}.cls-48{letter-spacing:-0.01em;}.cls-49{letter-spacing:0.02em;}.cls-50{letter-spacing:0.01em;}.cls-51{letter-spacing:-0.02em;}.cls-52{letter-spacing:0em;}.cls-53{letter-spacing:-0.06em;}.cls-54{letter-spacing:0em;}.cls-55{letter-spacing:-0.06em;}.cls-56{fill:#f6636f;}.cls-57{fill:#ffee87;}.cls-58{fill:#93c687;}</style></defs><title>velta 01</title><g id="Layer_2" data-name="Layer 2"><g id="Layer_1-2" data-name="Layer 1"><rect class="cls-1" width="1488.15" height="944.03" rx="22.57" ry="22.57"/><rect class="cls-2" y="71.16" width="1488.15" height="248.07"/><rect class="cls-3" x="23.57" y="330.43" width="193.25" height="53.32" rx="5.9" ry="5.9"/><rect class="cls-3" x="228.07" y="330.43" width="138.03" height="53.32" rx="5.9" ry="5.9"/><rect class="cls-3" x="377.35" y="330.43" width="217.79" height="53.32" rx="5.9" ry="5.9"/><rect class="cls-3" x="609.45" y="330.43" width="232.1" height="53.32" rx="5.9" ry="5.9"/><rect class="cls-3" x="852.8" y="330.43" width="156.44" height="53.32" rx="5.9" ry="5.9"/><rect class="cls-3" x="1021.51" y="330.43" width="205.52" height="53.32" rx="5.9" ry="5.9"/><rect class="cls-3" x="1239.29" y="330.43" width="220.85" height="53.32" rx="5.9" ry="5.9"/><rect class="cls-3" x="23.57" y="389.16" width="193.25" height="53.32" rx="5.9" ry="5.9"/><rect class="cls-3" x="228.07" y="389.16" width="138.03" height="53.32" rx="5.9" ry="5.9"/><rect class="cls-3" x="377.35" y="389.16" width="217.79" height="53.32" rx="5.9" ry="5.9"/><rect class="cls-3" x="609.45" y="389.16" width="232.1" height="53.32" rx="5.9" ry="5.9"/><rect class="cls-3" x="852.8" y="389.16" width="156.44" height="53.32" rx="5.9" ry="5.9"/><rect class="cls-3" x="1021.51" y="389.16" width="205.52" height="53.32" rx="5.9" ry="5.9"/><rect class="cls-3" x="1239.29" y="389.16" width="220.85" height="53.32" rx="5.9" ry="5.9"/><rect class="cls-3" x="23.57" y="447.9" width="193.25" height="53.32" rx="5.9" ry="5.9"/><rect class="cls-3" x="228.07" y="447.9" width="138.03" height="53.32" rx="5.9" ry="5.9"/><rect class="cls-3" x="377.35" y="447.9" width="217.79" height="53.32" rx="5.9" ry="5.9"/><rect class="cls-3" x="609.45" y="447.9" width="232.1" height="53.32" rx="5.9" ry="5.9"/><rect class="cls-3" x="852.8" y="447.9" width="156.44" height="53.32" rx="5.9" ry="5.9"/><rect class="cls-3" x="1021.51" y="447.9" width="205.52" height="53.32" rx="5.9" ry="5.9"/><rect class="cls-3" x="1239.29" y="447.9" width="220.85" height="53.32" rx="5.9" ry="5.9"/><rect class="cls-3" x="23.57" y="506.63" width="193.25" height="53.32" rx="5.9" ry="5.9"/><rect class="cls-3" x="228.07" y="506.63" width="138.03" height="53.32" rx="5.9" ry="5.9"/><rect class="cls-3" x="377.35" y="506.63" width="217.79" height="53.32" rx="5.9" ry="5.9"/><rect class="cls-3" x="609.45" y="506.63" width="232.1" height="53.32" rx="5.9" ry="5.9"/><rect class="cls-3" x="852.8" y="506.63" width="156.44" height="53.32" rx="5.9" ry="5.9"/><rect class="cls-3" x="1021.51" y="506.63" width="205.52" height="53.32" rx="5.9" ry="5.9"/><rect class="cls-3" x="1239.29" y="506.63" width="220.85" height="53.32" rx="5.9" ry="5.9"/><rect class="cls-3" x="23.57" y="565.36" width="193.25" height="53.32" rx="5.9" ry="5.9"/><rect class="cls-3" x="228.07" y="565.36" width="138.03" height="53.32" rx="5.9" ry="5.9"/><rect class="cls-3" x="377.35" y="565.36" width="217.79" height="53.32" rx="5.9" ry="5.9"/><rect class="cls-3" x="609.45" y="565.36" width="232.1" height="53.32" rx="5.9" ry="5.9"/><rect class="cls-3" x="852.8" y="565.36" width="156.44" height="53.32" rx="5.9" ry="5.9"/><rect class="cls-3" x="1021.51" y="565.36" width="205.52" height="53.32" rx="5.9" ry="5.9"/><rect class="cls-3" x="1239.29" y="565.36" width="220.85" height="53.32" rx="5.9" ry="5.9"/><rect class="cls-3" x="23.57" y="624.09" width="193.25" height="53.32" rx="5.9" ry="5.9"/><rect class="cls-3" x="228.07" y="624.09" width="138.03" height="53.32" rx="5.9" ry="5.9"/><rect class="cls-3" x="377.35" y="624.09" width="217.79" height="53.32" rx="5.9" ry="5.9"/><rect class="cls-3" x="609.45" y="624.09" width="232.1" height="53.32" rx="5.9" ry="5.9"/><rect class="cls-3" x="852.8" y="624.09" width="156.44" height="53.32" rx="5.9" ry="5.9"/><rect class="cls-3" x="1021.51" y="624.09" width="205.52" height="53.32" rx="5.9" ry="5.9"/><rect class="cls-3" x="1239.29" y="624.09" width="220.85" height="53.32" rx="5.9" ry="5.9"/><rect class="cls-3" x="23.57" y="682.83" width="193.25" height="53.32" rx="5.9" ry="5.9"/><rect class="cls-3" x="228.07" y="682.83" width="138.03" height="53.32" rx="5.9" ry="5.9"/><rect class="cls-3" x="377.35" y="682.83" width="217.79" height="53.32" rx="5.9" ry="5.9"/><rect class="cls-3" x="609.45" y="682.83" width="232.1" height="53.32" rx="5.9" ry="5.9"/><rect class="cls-3" x="852.8" y="682.83" width="156.44" height="53.32" rx="5.9" ry="5.9"/><rect class="cls-3" x="1021.51" y="682.83" width="205.52" height="53.32" rx="5.9" ry="5.9"/><rect class="cls-3" x="1239.29" y="682.83" width="220.85" height="53.32" rx="5.9" ry="5.9"/><rect class="cls-3" x="23.57" y="741.56" width="193.25" height="53.32" rx="5.9" ry="5.9"/><rect class="cls-3" x="228.07" y="741.56" width="138.03" height="53.32" rx="5.9" ry="5.9"/><rect class="cls-3" x="377.35" y="741.56" width="217.79" height="53.32" rx="5.9" ry="5.9"/><rect class="cls-3" x="609.45" y="741.56" width="232.1" height="53.32" rx="5.9" ry="5.9"/><rect class="cls-3" x="852.8" y="741.56" width="156.44" height="53.32" rx="5.9" ry="5.9"/><rect class="cls-3" x="1021.51" y="741.56" width="205.52" height="53.32" rx="5.9" ry="5.9"/><rect class="cls-3" x="1239.29" y="741.56" width="220.85" height="53.32" rx="5.9" ry="5.9"/><rect class="cls-3" x="23.57" y="800.29" width="193.25" height="53.32" rx="5.9" ry="5.9"/><rect class="cls-3" x="228.07" y="800.29" width="138.03" height="53.32" rx="5.9" ry="5.9"/><rect class="cls-3" x="377.35" y="800.29" width="217.79" height="53.32" rx="5.9" ry="5.9"/><rect class="cls-3" x="609.45" y="800.29" width="232.1" height="53.32" rx="5.9" ry="5.9"/><rect class="cls-3" x="852.8" y="800.29" width="156.44" height="53.32" rx="5.9" ry="5.9"/><rect class="cls-3" x="1021.51" y="800.29" width="205.52" height="53.32" rx="5.9" ry="5.9"/><rect class="cls-3" x="1239.29" y="800.29" width="220.85" height="53.32" rx="5.9" ry="5.9"/><rect class="cls-3" x="23.57" y="859.02" width="193.25" height="53.32" rx="5.9" ry="5.9"/><rect class="cls-3" x="228.07" y="859.02" width="138.03" height="53.32" rx="5.9" ry="5.9"/><rect class="cls-3" x="377.35" y="859.02" width="217.79" height="53.32" rx="5.9" ry="5.9"/><rect class="cls-3" x="609.45" y="859.02" width="232.1" height="53.32" rx="5.9" ry="5.9"/><rect class="cls-3" x="852.8" y="859.02" width="156.44" height="53.32" rx="5.9" ry="5.9"/><rect class="cls-3" x="1021.51" y="859.02" width="205.52" height="53.32" rx="5.9" ry="5.9"/><rect class="cls-3" x="1239.29" y="859.02" width="220.85" height="53.32" rx="5.9" ry="5.9"/><text class="cls-4" transform="translate(73.38 367.27)"><tspan class="cls-5">V</tspan><tspan x="17.91" y="0">T 150</tspan></text><text class="cls-4" transform="translate(285.46 367.27)">2</text><text class="cls-4" transform="translate(415.12 367.27)"><tspan class="cls-6">L</tspan><tspan x="15.05" y="0">amin</tspan><tspan class="cls-6" x="80.68" y="0">a</tspan><tspan x="95.92" y="0">da</tspan></text><text class="cls-4" transform="translate(706.32 367.27)"><tspan class="cls-7">2</tspan><tspan x="14.13" y="0">4</tspan></text><text class="cls-4" transform="translate(881.95 367.27)">3 mm</text><text class="cls-4" transform="translate(1095.76 367.27)">3<tspan class="cls-8" x="14.5" y="0">,</tspan><tspan class="cls-9" x="20.28" y="0">0</tspan><tspan x="36.92" y="0">2</tspan></text><text class="cls-4" transform="translate(1314.93 367.27)">8<tspan class="cls-6" x="16.25" y="0">0</tspan><tspan class="cls-10" x="33.14" y="0">ºC</tspan></text><text class="cls-4" transform="translate(73.38 425.23)"><tspan class="cls-5">V</tspan><tspan x="17.91" y="0">T 150</tspan></text><text class="cls-4" transform="translate(285.46 425.23)">3</text><text class="cls-4" transform="translate(415.12 425.23)"><tspan class="cls-6">L</tspan><tspan x="15.05" y="0">amin</tspan><tspan class="cls-6" x="80.68" y="0">a</tspan><tspan x="95.92" y="0">da</tspan></text><text class="cls-4" transform="translate(706.32 425.23)">36</text><text class="cls-4" transform="translate(881.95 425.23)">4 mm</text><text class="cls-4" transform="translate(1095.76 425.23)"><tspan class="cls-11">4</tspan><tspan x="17.42" y="0">,95</tspan></text><text class="cls-4" transform="translate(1314.93 425.23)">8<tspan class="cls-6" x="16.25" y="0">0</tspan><tspan class="cls-10" x="33.14" y="0">ºC</tspan></text><text class="cls-4" transform="translate(73.38 483.19)"><tspan class="cls-5">V</tspan><tspan x="17.91" y="0">T 150</tspan></text><text class="cls-4" transform="translate(285.46 483.19)">4</text><text class="cls-4" transform="translate(415.12 483.19)"><tspan class="cls-6">L</tspan><tspan x="15.05" y="0">amin</tspan><tspan class="cls-6" x="80.68" y="0">a</tspan><tspan x="95.92" y="0">da</tspan></text><text class="cls-4" transform="translate(706.32 483.19)"><tspan class="cls-12">4</tspan><tspan x="17.17" y="0">8</tspan></text><text class="cls-4" transform="translate(881.95 483.19)">5<tspan class="cls-12" x="14.55" y="0">,</tspan><tspan class="cls-13" x="20.88" y="0">3 mm</tspan></text><text class="cls-14" transform="translate(1095.76 483.19)">6<tspan class="cls-15" x="15.87" y="0">,</tspan><tspan class="cls-10" x="21.58" y="0">17</tspan></text><text class="cls-4" transform="translate(1314.93 483.19)">8<tspan class="cls-6" x="16.25" y="0">0</tspan><tspan class="cls-10" x="33.14" y="0">ºC</tspan></text><text class="cls-4" transform="translate(73.38 541.15)"><tspan class="cls-5">V</tspan><tspan x="17.91" y="0">T 150</tspan></text><text class="cls-4" transform="translate(285.46 541.15)">5</text><text class="cls-4" transform="translate(415.12 541.15)"><tspan class="cls-6">L</tspan><tspan x="15.05" y="0">amin</tspan><tspan class="cls-6" x="80.68" y="0">a</tspan><tspan x="95.92" y="0">da</tspan></text><text class="cls-4" transform="translate(706.32 541.15)">60</text><text class="cls-4" transform="translate(881.95 541.15)"><tspan class="cls-12">6</tspan><tspan x="15.87" y="0">,5 mm</tspan></text><text class="cls-4" transform="translate(1095.76 541.15)"><tspan class="cls-16">7</tspan><tspan class="cls-12" x="13.9" y="0">,</tspan><tspan x="20.23" y="0">86</tspan></text><text class="cls-4" transform="translate(1314.93 541.15)">8<tspan class="cls-6" x="16.25" y="0">0</tspan><tspan class="cls-10" x="33.14" y="0">ºC</tspan></text><text class="cls-4" transform="translate(73.38 599.11)"><tspan class="cls-5">V</tspan><tspan x="17.91" y="0">T 150</tspan></text><text class="cls-4" transform="translate(285.46 599.11)">6</text><text class="cls-4" transform="translate(415.12 599.11)"><tspan class="cls-6">L</tspan><tspan x="15.05" y="0">amin</tspan><tspan class="cls-6" x="80.68" y="0">a</tspan><tspan x="95.92" y="0">da</tspan></text><text class="cls-4" transform="translate(706.32 599.11)">72</text><text class="cls-4" transform="translate(881.95 599.11)"><tspan class="cls-12">8,</tspan><tspan x="22.82" y="0">2 mm</tspan></text><text class="cls-4" transform="translate(1095.76 599.11)"><tspan class="cls-8">9</tspan><tspan x="15.32" y="0">,56</tspan></text><text class="cls-4" transform="translate(1314.93 599.11)">8<tspan class="cls-6" x="16.25" y="0">0</tspan><tspan class="cls-10" x="33.14" y="0">ºC</tspan></text><text class="cls-4" transform="translate(73.38 657.07)"><tspan class="cls-5">V</tspan><tspan x="17.91" y="0">T 150</tspan></text><text class="cls-4" transform="translate(285.46 657.07)">8</text><text class="cls-4" transform="translate(415.12 657.07)"><tspan class="cls-6">L</tspan><tspan x="15.05" y="0">amin</tspan><tspan class="cls-6" x="80.68" y="0">a</tspan><tspan x="95.92" y="0">da</tspan></text><text class="cls-4" transform="translate(706.32 657.07)">84</text><text class="cls-4" transform="translate(881.95 657.07)"><tspan class="cls-8">9,</tspan><tspan x="21.1" y="0">6 mm</tspan></text><text class="cls-4" transform="translate(1095.76 657.07)">1<tspan class="cls-17" x="9.49" y="0">2</tspan><tspan class="cls-15" x="24.24" y="0">,</tspan><tspan class="cls-18" x="29.95" y="0">7</tspan><tspan x="44.65" y="0">5</tspan></text><text class="cls-4" transform="translate(1314.93 657.07)">8<tspan class="cls-6" x="16.25" y="0">0</tspan><tspan class="cls-10" x="33.14" y="0">ºC</tspan></text><text class="cls-4" transform="translate(73.38 715.03)"><tspan class="cls-5">V</tspan><tspan x="17.91" y="0">T </tspan><tspan class="cls-19" x="39.79" y="0">2</tspan><tspan class="cls-13" x="54.22" y="0">00</tspan></text><text class="cls-4" transform="translate(285.46 715.03)">3</text><text class="cls-4" transform="translate(415.12 715.03)"><tspan class="cls-6">L</tspan><tspan x="15.05" y="0">amin</tspan><tspan class="cls-6" x="80.68" y="0">a</tspan><tspan x="95.92" y="0">da</tspan></text><text class="cls-4" transform="translate(706.32 715.03)">60</text><text class="cls-4" transform="translate(881.95 715.03)"><tspan class="cls-11">4</tspan><tspan x="17.42" y="0">,5 mm</tspan></text><text class="cls-4" transform="translate(1095.76 715.03)">5<tspan class="cls-20" x="14.55" y="0">,</tspan><tspan class="cls-21" x="20.26" y="0">7</tspan><tspan class="cls-10" x="35.65" y="0">1</tspan></text><text class="cls-4" transform="translate(1314.93 715.03)">8<tspan class="cls-6" x="16.25" y="0">0</tspan><tspan class="cls-10" x="33.14" y="0">ºC</tspan></text><text class="cls-4" transform="translate(73.38 772.99)"><tspan class="cls-5">V</tspan><tspan x="17.91" y="0">T </tspan><tspan class="cls-19" x="39.79" y="0">2</tspan><tspan class="cls-13" x="54.22" y="0">00</tspan></text><text class="cls-4" transform="translate(285.46 772.99)">4</text><text class="cls-4" transform="translate(415.12 772.99)">1<tspan class="cls-22" x="9.49" y="0">/</tspan><tspan x="19.48" y="0">16” x 1</tspan><tspan class="cls-23" x="93.48" y="0">/</tspan><tspan x="103.47" y="0">16”</tspan></text><text class="cls-4" transform="translate(706.32 772.99)">80</text><text class="cls-4" transform="translate(881.95 772.99)">6 mm</text><text class="cls-4" transform="translate(1095.76 772.99)"><tspan class="cls-16">7</tspan><tspan class="cls-20" x="13.9" y="0">,</tspan><tspan class="cls-24" x="19.61" y="0">7</tspan><tspan x="34.26" y="0">6</tspan></text><text class="cls-4" transform="translate(1314.93 772.99)">8<tspan class="cls-6" x="16.25" y="0">0</tspan><tspan class="cls-10" x="33.14" y="0">ºC</tspan></text><text class="cls-4" transform="translate(73.38 830.95)"><tspan class="cls-5">V</tspan><tspan x="17.91" y="0">T </tspan><tspan class="cls-19" x="39.79" y="0">2</tspan><tspan class="cls-13" x="54.22" y="0">00</tspan></text><text class="cls-4" transform="translate(285.46 830.95)">5</text><text class="cls-4" transform="translate(415.12 830.95)">1<tspan class="cls-22" x="9.49" y="0">/</tspan><tspan x="19.48" y="0">16” x 1</tspan><tspan class="cls-23" x="93.48" y="0">/</tspan><tspan x="103.47" y="0">16”</tspan></text><text class="cls-4" transform="translate(706.32 830.95)">100</text><text class="cls-4" transform="translate(881.95 830.95)">7 mm</text><text class="cls-4" transform="translate(1095.76 830.95)"><tspan class="cls-8">9</tspan><tspan class="cls-12" x="15.32" y="0">,</tspan><tspan x="21.65" y="0">81</tspan></text><text class="cls-4" transform="translate(1314.93 830.95)">8<tspan class="cls-6" x="16.25" y="0">0</tspan><tspan class="cls-10" x="33.14" y="0">ºC</tspan></text><text class="cls-4" transform="translate(73.38 888.91)"><tspan class="cls-5">V</tspan><tspan x="17.91" y="0">T </tspan><tspan class="cls-19" x="39.79" y="0">2</tspan><tspan class="cls-13" x="54.22" y="0">00</tspan></text><text class="cls-4" transform="translate(285.46 888.91)">6</text><text class="cls-4" transform="translate(415.12 888.91)">1<tspan class="cls-22" x="9.49" y="0">/</tspan><tspan x="19.48" y="0">16” x 1</tspan><tspan class="cls-23" x="93.48" y="0">/</tspan><tspan x="103.47" y="0">16”</tspan></text><text class="cls-4" transform="translate(706.32 888.91)">1<tspan class="cls-25" x="9.49" y="0">2</tspan><tspan x="23.92" y="0">0</tspan></text><text class="cls-4" transform="translate(881.95 888.91)"><tspan class="cls-8">9</tspan><tspan class="cls-12" x="15.32" y="0">,</tspan><tspan x="21.65" y="0">8 mm</tspan></text><text class="cls-4" transform="translate(1095.76 888.91)">11<tspan class="cls-12" x="18.99" y="0">,</tspan><tspan x="25.31" y="0">86</tspan></text><text class="cls-4" transform="translate(1314.93 888.91)">8<tspan class="cls-6" x="16.25" y="0">0</tspan><tspan class="cls-10" x="33.14" y="0">ºC</tspan></text><text class="cls-26" transform="translate(356.38 173.17)"><tspan class="cls-27">C</tspan><tspan x="33.52" y="0">ORREIAS </tspan><tspan class="cls-28" x="268.19" y="0">P</tspan><tspan class="cls-29" x="301.9" y="0">L</tspan><tspan x="330.55" y="0">ANAS EL</tspan><tspan class="cls-28" x="543.75" y="0">E</tspan><tspan class="cls-30" x="574.44" y="0">V</tspan><tspan x="608.15" y="0">ADORAS</tspan></text><text class="cls-31" transform="translate(78.25 289.09)">Re<tspan class="cls-32" x="23.53" y="0">f</tspan><tspan class="cls-33" x="29.8" y="0">e</tspan><tspan class="cls-34" x="40.62" y="0">r</tspan><tspan class="cls-33" x="47.75" y="0">e</tspan><tspan class="cls-35" x="58.56" y="0">n</tspan><tspan class="cls-33" x="70.56" y="0">cia</tspan></text><text class="cls-31" transform="translate(443.73 289.09)"><tspan class="cls-36">C</tspan><tspan x="12.29" y="0">obe</tspan><tspan class="cls-37" x="46.25" y="0">r</tspan><tspan x="53.81" y="0">tu</tspan><tspan class="cls-38" x="73.03" y="0">r</tspan><tspan x="80.19" y="0">a</tspan></text><text class="cls-31" transform="translate(287.26 263.58)">Nº<tspan x="-26.9" y="20.87">de lonas</tspan></text><text class="cls-31" transform="translate(659.7 263.58)"><tspan class="cls-39">C</tspan><tspan x="12.55" y="0">a</tspan><tspan class="cls-40" x="23.11" y="0">p</tspan><tspan class="cls-41" x="34.92" y="0">a</tspan><tspan x="45.56" y="0">cid</tspan><tspan class="cls-41" x="72.63" y="0">a</tspan><tspan x="83.27" y="0">de de</tspan><tspan class="cls-42" x="-3.93" y="20.87">t</tspan><tspan x="3.13" y="20.87">ens</tspan><tspan class="cls-41" x="34.81" y="20.87">a</tspan><tspan x="45.45" y="20.87">o (</tspan><tspan class="cls-43" x="67.5" y="20.87">K</tspan><tspan x="79.77" y="20.87">g</tspan><tspan class="cls-44" x="91.84" y="20.87">f</tspan><tspan class="cls-45" x="97.74" y="20.87">/</tspan><tspan class="cls-33" x="103.06" y="20.87">cm)</tspan></text><text class="cls-31" transform="translate(885.65 263.58)"><tspan class="cls-46">E</tspan><tspan class="cls-33" x="11.56" y="0">spessu</tspan><tspan class="cls-32" x="73.01" y="0">r</tspan><tspan x="80.18" y="0">a</tspan><tspan x="21.01" y="20.87">(mm)</tspan></text><text class="cls-31" transform="translate(1065.3 263.58)"><tspan class="cls-47">P</tspan><tspan x="12.42" y="0">eso/ </tspan><tspan class="cls-48" x="54.65" y="0">c</tspan><tspan x="64.61" y="0">obe</tspan><tspan class="cls-49" x="98.57" y="0">r</tspan><tspan class="cls-50" x="106.13" y="0">t</tspan><tspan x="113.68" y="0">.</tspan><tspan x="24.72" y="20.87">(</tspan><tspan class="cls-51" x="30.75" y="20.87">k</tspan><tspan class="cls-52" x="41.43" y="20.87">g</tspan><tspan class="cls-53" x="53.49" y="20.87">/</tspan><tspan class="cls-46" x="58.81" y="20.87">m</tspan><tspan class="cls-54" x="77.04" y="20.87">2)</tspan></text><text class="cls-31" transform="translate(1291.71 263.58)"><tspan class="cls-55">T</tspan><tspan x="9.51" y="0">empe</tspan><tspan class="cls-38" x="61.38" y="0">r</tspan><tspan class="cls-52" x="68.54" y="0">atu</tspan><tspan class="cls-38" x="98.31" y="0">r</tspan><tspan class="cls-52" x="105.47" y="0">a</tspan><tspan x="25.17" y="20.87">de pi</tspan><tspan class="cls-38" x="69.68" y="20.87">c</tspan><tspan x="79.65" y="20.87">o</tspan></text><path class="cls-3" d="M1454.58,210.26H38.67c-.87,0-1.58-.52-1.58-1.16s.71-1.16,1.58-1.16H1454.58c.86,0,1.57.52,1.57,1.16S1455.44,210.26,1454.58,210.26Z"/><circle class="cls-56" cx="32.15" cy="33" r="14"/><circle class="cls-57" cx="73.38" cy="33" r="14"/><circle class="cls-58" cx="113.04" cy="33" r="14"/></g></g></svg>