<svg xmlns="http://www.w3.org/2000/svg" viewBox="0 0 1488.15 944.03"><defs><style>.cls-1{fill:#e4e2e2;}.cls-2{fill:#f6636f;}.cls-3{fill:#ffee87;}.cls-4{fill:#93c687;}.cls-5{fill:#272e3e;}.cls-24,.cls-29,.cls-49,.cls-54,.cls-56,.cls-6{fill:#fff;}.cls-7,.cls-9{font-size:28.46px;fill:#1d1d1b;}.cls-29,.cls-56,.cls-7,.cls-9{font-family:Montserrat-SemiBold, Montserrat SemiBold;}.cls-21,.cls-7{letter-spacing:-0.01em;}.cls-8{letter-spacing:0em;}.cls-10{letter-spacing:0.03em;}.cls-11{letter-spacing:0.03em;}.cls-12{letter-spacing:0.01em;}.cls-13{letter-spacing:-0.01em;}.cls-14{letter-spacing:0.01em;}.cls-15{letter-spacing:-0.02em;}.cls-16{letter-spacing:0em;}.cls-17{letter-spacing:0em;}.cls-18{letter-spacing:0.01em;}.cls-19{letter-spacing:-0.01em;}.cls-20{letter-spacing:-0.06em;}.cls-22{letter-spacing:0.02em;}.cls-23{letter-spacing:-0.01em;}.cls-24{font-size:52.97px;}.cls-24,.cls-49,.cls-54{font-family:Montserrat-ExtraBold, Montserrat ExtraBold;}.cls-25{letter-spacing:-0.01em;}.cls-26{letter-spacing:0em;}.cls-27{letter-spacing:-0.01em;}.cls-28{letter-spacing:-0.03em;}.cls-29{font-size:19.86px;}.cls-30{letter-spacing:-0.01em;}.cls-31{letter-spacing:-0.01em;}.cls-32{letter-spacing:0em;}.cls-33{letter-spacing:-0.02em;}.cls-34{letter-spacing:0.02em;}.cls-35{letter-spacing:0em;}.cls-36{letter-spacing:-0.01em;}.cls-37{letter-spacing:-0.02em;}.cls-38{letter-spacing:-0.02em;}.cls-39{letter-spacing:-0.03em;}.cls-40{letter-spacing:-0.06em;}.cls-41{letter-spacing:0em;}.cls-42{letter-spacing:-0.01em;}.cls-43{letter-spacing:-0.01em;}.cls-44{letter-spacing:0.01em;}.cls-45{letter-spacing:0.01em;}.cls-46{letter-spacing:-0.02em;}.cls-47{letter-spacing:0em;}.cls-48{letter-spacing:-0.05em;}.cls-49{font-size:35.07px;}.cls-50{letter-spacing:-0.01em;}.cls-51{letter-spacing:-0.01em;}.cls-52{letter-spacing:-0.01em;}.cls-53{letter-spacing:0em;}.cls-54{font-size:30.06px;}.cls-55{letter-spacing:-0.01em;}.cls-56{font-size:25.47px;}.cls-57{letter-spacing:0em;}.cls-58{letter-spacing:0em;}.cls-59{letter-spacing:-0.01em;}.cls-60{letter-spacing:-0.03em;}.cls-61{letter-spacing:-0.02em;}.cls-62{letter-spacing:-0.06em;}.cls-63{letter-spacing:-0.03em;}.cls-64{letter-spacing:-0.01em;}</style></defs><title>velta 02</title><g id="Layer_2" data-name="Layer 2"><g id="Layer_1-2" data-name="Layer 1"><rect class="cls-1" width="1488.15" height="944.03" rx="22.57" ry="22.57"/><circle class="cls-2" cx="32.15" cy="33" r="14"/><circle class="cls-3" cx="73.38" cy="33" r="14"/><circle class="cls-4" cx="113.04" cy="33" r="14"/><rect class="cls-5" y="80.06" width="1488.15" height="283.4"/><rect class="cls-6" x="29.13" y="376.26" width="192.03" height="60.92" rx="5.86" ry="5.86"/><rect class="cls-6" x="232.33" y="376.26" width="137.16" height="60.92" rx="5.86" ry="5.86"/><rect class="cls-6" x="380.67" y="376.26" width="216.41" height="60.92" rx="5.86" ry="5.86"/><rect class="cls-6" x="611.31" y="376.26" width="230.64" height="60.92" rx="5.86" ry="5.86"/><rect class="cls-6" x="853.12" y="376.26" width="155.45" height="60.92" rx="5.86" ry="5.86"/><rect class="cls-6" x="1020.76" y="376.26" width="204.22" height="60.92" rx="5.86" ry="5.86"/><rect class="cls-6" x="1237.17" y="376.26" width="219.46" height="60.92" rx="5.86" ry="5.86"/><rect class="cls-6" x="29.13" y="443.36" width="192.03" height="60.92" rx="5.86" ry="5.86"/><rect class="cls-6" x="232.33" y="443.36" width="137.16" height="60.92" rx="5.86" ry="5.86"/><rect class="cls-6" x="380.67" y="443.36" width="216.41" height="60.92" rx="5.86" ry="5.86"/><rect class="cls-6" x="611.31" y="443.36" width="230.64" height="60.92" rx="5.86" ry="5.86"/><rect class="cls-6" x="853.12" y="443.36" width="155.45" height="60.92" rx="5.86" ry="5.86"/><rect class="cls-6" x="1020.76" y="443.36" width="204.22" height="60.92" rx="5.86" ry="5.86"/><rect class="cls-6" x="1237.17" y="443.36" width="219.46" height="60.92" rx="5.86" ry="5.86"/><rect class="cls-6" x="29.13" y="510.46" width="192.03" height="60.92" rx="5.86" ry="5.86"/><rect class="cls-6" x="232.33" y="510.46" width="137.16" height="60.92" rx="5.86" ry="5.86"/><rect class="cls-6" x="380.67" y="510.46" width="216.41" height="60.92" rx="5.86" ry="5.86"/><rect class="cls-6" x="611.31" y="510.46" width="230.64" height="60.92" rx="5.86" ry="5.86"/><rect class="cls-6" x="853.12" y="510.46" width="155.45" height="60.92" rx="5.86" ry="5.86"/><rect class="cls-6" x="1020.76" y="510.46" width="204.22" height="60.92" rx="5.86" ry="5.86"/><rect class="cls-6" x="1237.17" y="510.46" width="219.46" height="60.92" rx="5.86" ry="5.86"/><rect class="cls-6" x="29.13" y="577.55" width="192.03" height="60.92" rx="5.86" ry="5.86"/><rect class="cls-6" x="232.33" y="577.55" width="137.16" height="60.92" rx="5.86" ry="5.86"/><rect class="cls-6" x="380.67" y="577.55" width="216.41" height="60.92" rx="5.86" ry="5.86"/><rect class="cls-6" x="611.31" y="577.55" width="230.64" height="60.92" rx="5.86" ry="5.86"/><rect class="cls-6" x="853.12" y="577.55" width="155.45" height="60.92" rx="5.86" ry="5.86"/><rect class="cls-6" x="1020.76" y="577.55" width="204.22" height="60.92" rx="5.86" ry="5.86"/><rect class="cls-6" x="1237.17" y="577.55" width="219.46" height="60.92" rx="5.86" ry="5.86"/><rect class="cls-6" x="29.13" y="644.65" width="192.03" height="60.92" rx="5.86" ry="5.86"/><rect class="cls-6" x="232.33" y="644.65" width="137.16" height="60.92" rx="5.86" ry="5.86"/><rect class="cls-6" x="380.67" y="644.65" width="216.41" height="60.92" rx="5.86" ry="5.86"/><rect class="cls-6" x="611.31" y="644.65" width="230.64" height="60.92" rx="5.86" ry="5.86"/><rect class="cls-6" x="853.12" y="644.65" width="155.45" height="60.92" rx="5.86" ry="5.86"/><rect class="cls-6" x="1020.76" y="644.65" width="204.22" height="60.92" rx="5.86" ry="5.86"/><rect class="cls-6" x="1237.17" y="644.65" width="219.46" height="60.92" rx="5.86" ry="5.86"/><rect class="cls-6" x="29.13" y="711.75" width="192.03" height="60.92" rx="5.86" ry="5.86"/><rect class="cls-6" x="232.33" y="711.75" width="137.16" height="60.92" rx="5.86" ry="5.86"/><rect class="cls-6" x="380.67" y="711.75" width="216.41" height="60.92" rx="5.86" ry="5.86"/><rect class="cls-6" x="611.31" y="711.75" width="230.64" height="60.92" rx="5.86" ry="5.86"/><rect class="cls-6" x="853.12" y="711.75" width="155.45" height="60.92" rx="5.86" ry="5.86"/><rect class="cls-6" x="1020.76" y="711.75" width="204.22" height="60.92" rx="5.86" ry="5.86"/><rect class="cls-6" x="1237.17" y="711.75" width="219.46" height="60.92" rx="5.86" ry="5.86"/><text class="cls-7" transform="translate(79.21 418.35)">V<tspan class="cls-8" x="20.47" y="0">T 150</tspan></text><text class="cls-9" transform="translate(293.53 418.35)">2</text><text class="cls-9" transform="translate(410.2 418.35)">1<tspan class="cls-10" x="10.84" y="0">/</tspan><tspan class="cls-8" x="22.26" y="0">16” x 1</tspan><tspan class="cls-11" x="106.8" y="0">/</tspan><tspan class="cls-8" x="118.21" y="0">16”</tspan></text><text class="cls-9" transform="translate(703.49 418.35)">25</text><text class="cls-9" transform="translate(877.44 418.35)">6 mm</text><text class="cls-9" transform="translate(1097.87 418.35)"><tspan class="cls-12">6</tspan><tspan class="cls-13" x="18.13" y="0">,</tspan><tspan x="24.74" y="0">6</tspan></text><text class="cls-9" transform="translate(1305.99 418.35)">8<tspan class="cls-14" x="18.56" y="0">0</tspan><tspan x="37.86" y="0">ºC</tspan></text><text class="cls-7" transform="translate(79.21 484.57)">V<tspan class="cls-8" x="20.47" y="0">T 150</tspan></text><text class="cls-9" transform="translate(293.53 484.57)">2</text><text class="cls-9" transform="translate(416.05 484.57)">1<tspan class="cls-15" x="10.84" y="0">/</tspan><tspan class="cls-8" x="20.69" y="0">8” x 1</tspan><tspan class="cls-10" x="95.1" y="0">/</tspan><tspan x="106.51" y="0">16”</tspan></text><text class="cls-9" transform="translate(703.49 484.57)">25</text><text class="cls-9" transform="translate(877.44 484.57)">7 mm</text><text class="cls-9" transform="translate(1097.87 484.57)"><tspan class="cls-12">8</tspan><tspan class="cls-16" x="18.84" y="0">,</tspan><tspan x="25.65" y="0">4</tspan></text><text class="cls-9" transform="translate(1305.99 484.57)">8<tspan class="cls-14" x="18.56" y="0">0</tspan><tspan x="37.86" y="0">ºC</tspan></text><text class="cls-7" transform="translate(79.21 550.78)">V<tspan class="cls-8" x="20.47" y="0">T 2</tspan><tspan class="cls-17" x="62.02" y="0">2</tspan><tspan class="cls-8" x="78.5" y="0">0</tspan></text><text class="cls-9" transform="translate(293.53 550.78)">2</text><text class="cls-9" transform="translate(407.34 550.78)">3<tspan class="cls-10" x="16.57" y="0">/</tspan><tspan x="27.98" y="0">16” x 1</tspan><tspan class="cls-10" x="112.52" y="0">/</tspan><tspan x="123.93" y="0">16”</tspan></text><text class="cls-9" transform="translate(703.49 550.78)">44</text><text class="cls-9" transform="translate(877.44 550.78)"><tspan class="cls-18">8</tspan><tspan x="18.84" y="0">,5 mm</tspan></text><text class="cls-9" transform="translate(1097.87 550.78)">1<tspan class="cls-12" x="10.84" y="0">2</tspan><tspan class="cls-19" x="27.7" y="0">,</tspan><tspan x="34.21" y="0">1</tspan></text><text class="cls-9" transform="translate(1305.99 550.78)">8<tspan class="cls-14" x="18.56" y="0">0</tspan><tspan x="37.86" y="0">ºC</tspan></text><text class="cls-7" transform="translate(79.21 689.77)">V<tspan class="cls-8" x="20.47" y="0">T 2</tspan><tspan class="cls-17" x="62.02" y="0">2</tspan><tspan class="cls-8" x="78.5" y="0">0</tspan></text><text class="cls-9" transform="translate(293.53 689.77)">3</text><text class="cls-9" transform="translate(407.34 689.77)">3<tspan class="cls-10" x="16.57" y="0">/</tspan><tspan x="27.98" y="0">16” x 1</tspan><tspan class="cls-10" x="112.52" y="0">/</tspan><tspan x="123.93" y="0">16”</tspan></text><text class="cls-9" transform="translate(703.49 689.77)">66</text><text class="cls-9" transform="translate(877.44 689.77)">11 mm</text><text class="cls-9" transform="translate(1097.87 689.77)">1<tspan class="cls-12" x="10.84" y="0">2</tspan><tspan class="cls-13" x="27.7" y="0">,</tspan><tspan x="34.3" y="0">6</tspan></text><text class="cls-9" transform="translate(1305.99 689.77)">8<tspan class="cls-14" x="18.56" y="0">0</tspan><tspan x="37.86" y="0">ºC</tspan></text><text class="cls-7" transform="translate(79.21 755.99)">V<tspan class="cls-8" x="20.47" y="0">T 2</tspan><tspan class="cls-17" x="62.02" y="0">2</tspan><tspan class="cls-8" x="78.5" y="0">0</tspan></text><text class="cls-9" transform="translate(293.53 755.99)">3</text><text class="cls-9" transform="translate(416.38 755.99)">1<tspan class="cls-20" x="10.84" y="0">/</tspan><tspan class="cls-21" x="19.56" y="0">4</tspan><tspan class="cls-8" x="38.6" y="0">” x 1</tspan><tspan class="cls-10" x="94.44" y="0">/</tspan><tspan x="105.86" y="0">16”</tspan></text><text class="cls-9" transform="translate(703.49 755.99)">66</text><text class="cls-9" transform="translate(877.44 755.99)">12 mm</text><text class="cls-9" transform="translate(1097.87 755.99)">1<tspan class="cls-22" x="10.84" y="0">4</tspan><tspan class="cls-23" x="30.74" y="0">,</tspan><tspan x="37.54" y="0">4</tspan></text><text class="cls-9" transform="translate(1305.99 755.99)">8<tspan class="cls-14" x="18.56" y="0">0</tspan><tspan x="37.86" y="0">ºC</tspan></text><text class="cls-7" transform="translate(79.21 614.27)">V<tspan class="cls-8" x="20.47" y="0">T 150</tspan></text><text class="cls-9" transform="translate(293.53 614.27)">3</text><text class="cls-9" transform="translate(421.9 614.27)">1<tspan class="cls-15" x="10.84" y="0">/</tspan><tspan class="cls-8" x="20.69" y="0">8” x 1</tspan><tspan class="cls-10" x="95.1" y="0">/</tspan><tspan x="106.51" y="0">16”</tspan></text><text class="cls-9" transform="translate(703.49 614.27)">66</text><text class="cls-9" transform="translate(877.44 614.27)">8 mm</text><text class="cls-9" transform="translate(1097.87 614.27)">1<tspan class="cls-12" x="10.84" y="0">6,</tspan><tspan x="36.21" y="0">2</tspan></text><text class="cls-9" transform="translate(1305.99 614.27)">8<tspan class="cls-14" x="18.56" y="0">0</tspan><tspan x="37.86" y="0">ºC</tspan></text><text class="cls-24" transform="translate(281.7 196.6)"><tspan class="cls-25">C</tspan><tspan class="cls-26" x="38.3" y="0">ORREIAS TRANSPO</tspan><tspan class="cls-27" x="581.68" y="0">R</tspan><tspan class="cls-28" x="620.35" y="0">T</tspan><tspan x="652.13" y="0">ADORAS</tspan></text><text class="cls-29" transform="translate(74.9 329.03)">Re<tspan class="cls-30" x="26.88" y="0">f</tspan><tspan x="34.05" y="0">e</tspan><tspan class="cls-31" x="46.4" y="0">r</tspan><tspan x="54.55" y="0">e</tspan><tspan class="cls-32" x="66.9" y="0">n</tspan><tspan x="80.61" y="0">cia</tspan></text><text class="cls-29" transform="translate(435.32 329.03)"><tspan class="cls-33">C</tspan><tspan x="14.04" y="0">obe</tspan><tspan class="cls-34" x="52.84" y="0">r</tspan><tspan x="61.48" y="0">tu</tspan><tspan class="cls-30" x="83.43" y="0">r</tspan><tspan x="91.61" y="0">a</tspan></text><text class="cls-29" transform="translate(291.41 299.9)">Nº<tspan x="-30.73" y="23.84">de lonas</tspan></text><text class="cls-29" transform="translate(649.18 299.9)"><tspan class="cls-35">C</tspan><tspan x="14.34" y="0">a</tspan><tspan class="cls-36" x="26.4" y="0">p</tspan><tspan class="cls-32" x="39.89" y="0">a</tspan><tspan x="52.04" y="0">cid</tspan><tspan class="cls-32" x="82.97" y="0">a</tspan><tspan x="95.13" y="0">de de</tspan><tspan class="cls-37" x="-4.49" y="23.84">t</tspan><tspan x="3.58" y="23.84">ens</tspan><tspan class="cls-32" x="39.77" y="23.84">a</tspan><tspan x="51.93" y="23.84">o (</tspan><tspan class="cls-38" x="77.11" y="23.84">K</tspan><tspan x="91.14" y="23.84">g</tspan><tspan class="cls-39" x="104.92" y="23.84">f</tspan><tspan class="cls-40" x="111.66" y="23.84">/</tspan><tspan x="117.73" y="23.84">cm)</tspan></text><text class="cls-29" transform="translate(878.02 299.9)"><tspan class="cls-35">E</tspan><tspan class="cls-41" x="13.21" y="0">spessu</tspan><tspan class="cls-42" x="83.41" y="0">r</tspan><tspan x="91.59" y="0">a</tspan><tspan x="24.01" y="23.84">(mm)</tspan></text><text class="cls-29" transform="translate(1055.51 299.9)"><tspan class="cls-43">P</tspan><tspan x="14.18" y="0">eso/ </tspan><tspan class="cls-42" x="62.43" y="0">c</tspan><tspan x="73.82" y="0">obe</tspan><tspan class="cls-44" x="112.61" y="0">r</tspan><tspan class="cls-45" x="121.25" y="0">t</tspan><tspan x="129.87" y="0">.</tspan><tspan x="28.24" y="23.84">(</tspan><tspan class="cls-46" x="35.13" y="23.84">k</tspan><tspan x="47.33" y="23.84">g</tspan><tspan class="cls-40" x="61.11" y="23.84">/</tspan><tspan class="cls-47" x="67.19" y="23.84">m</tspan><tspan x="88.01" y="23.84">2)</tspan></text><text class="cls-29" transform="translate(1280.63 299.9)"><tspan class="cls-48">T</tspan><tspan x="10.87" y="0">empe</tspan><tspan class="cls-42" x="70.12" y="0">r</tspan><tspan x="78.3" y="0">atu</tspan><tspan class="cls-30" x="112.31" y="0">r</tspan><tspan x="120.5" y="0">a</tspan><tspan x="28.75" y="23.84">de pi</tspan><tspan class="cls-30" x="79.61" y="23.84">c</tspan><tspan x="90.99" y="23.84">o</tspan></text><path class="cls-6" d="M1455.07,239H46.14a1.34,1.34,0,1,1,0-2.65H1455.07a1.34,1.34,0,1,1,0,2.65Z"/><path class="cls-5" d="M0,805.52H1488.15a0,0,0,0,1,0,0V923A21.05,21.05,0,0,1,1467.1,944H21.05A21.05,21.05,0,0,1,0,923V805.52a0,0,0,0,1,0,0Z"/><text class="cls-49" transform="translate(531.66 857.67)">TIPOS DE <tspan class="cls-50" x="185.29" y="0">C</tspan><tspan x="210.64" y="0">OBE</tspan><tspan class="cls-51" x="290.83" y="0">R</tspan><tspan class="cls-52" x="316.43" y="0">T</tspan><tspan class="cls-53" x="338.31" y="0">URAS</tspan></text><text class="cls-54" transform="translate(81.94 915.04)"><tspan class="cls-55">A</tspan><tspan x="23.32" y="0">C</tspan></text><text class="cls-56" transform="translate(142.96 915.04)">ANTICHAMAS</text><text class="cls-56" transform="translate(465.83 915.04)">ANTIÓL<tspan class="cls-57" x="99.87" y="0">E</tspan><tspan class="cls-58" x="116.86" y="0">OS</tspan></text><text class="cls-54" transform="translate(404.82 915.04)">AD</text><text class="cls-56" transform="translate(809.85 916.85)">ANTIE<tspan class="cls-59" x="80.23" y="0">S</tspan><tspan class="cls-60" x="96" y="0">TÁ</tspan><tspan x="128.63" y="0">TI</tspan><tspan class="cls-61" x="152.08" y="0">C</tspan><tspan x="170.22" y="0">O</tspan></text><text class="cls-56" transform="translate(1168.07 916.85)">A<tspan class="cls-62" x="19.08" y="0">L</tspan><tspan class="cls-63" x="32.68" y="0">T</tspan><tspan x="47.12" y="0">A ABRAS</tspan><tspan class="cls-64" x="165.4" y="0">A</tspan><tspan x="184.23" y="0">O</tspan></text><text class="cls-54" transform="translate(747.61 916.85)">AE</text><text class="cls-54" transform="translate(1105.82 916.85)">AB</text><path class="cls-6" d="M1436.1,875H46.12a1.34,1.34,0,1,1,0-2.65h1390a1.34,1.34,0,1,1,0,2.65Z"/></g></g></svg>